<svg width="18" height="18" xmlns="http://www.w3.org/2000/svg">
 <title/>
 <desc/>

 <g>
  <title>background</title>
  <rect fill="none" id="canvas_background" height="402" width="582" y="-1" x="-1"/>
 </g>
 <g>
  <title>Layer 1</title>
  <path stroke="null" fill="#ff6600" id="Shape" d="m12.86086,11.311009l-0.821428,0l-0.308036,-0.308482c1.026785,-1.131101 1.642857,-2.673511 1.642857,-4.318749c0,-3.701785 -2.977678,-6.683778 -6.674106,-6.683778c-3.696428,0 -6.674106,2.981993 -6.674106,6.683778c0,3.701785 2.977678,6.683778 6.674106,6.683778c1.642857,0 3.183035,-0.616964 4.312499,-1.645238l0.308036,0.308482l0,0.822619l5.133927,5.141368l1.540178,-1.54241l-5.133927,-5.141368l0,0zm-6.160713,0c-2.566964,0 -4.620535,-2.056547 -4.620535,-4.627231c0,-2.570684 2.053571,-4.627231 4.620535,-4.627231c2.566964,0 4.620535,2.056547 4.620535,4.627231c0,2.570684 -2.053571,4.627231 -4.620535,4.627231l0,0z"/>
 </g>
</svg>