<svg fill="#000000" xmlns="http://www.w3.org/2000/svg"  viewBox="0 0 64 64" width="512px" height="512px"><path d="M 13 6 C 9.1456661 6 6 9.1456661 6 13 L 6 51 C 6 54.854334 9.1456661 58 13 58 L 51 58 C 54.854334 58 58 54.854334 58 51 L 58 13 C 58 9.1456661 54.854334 6 51 6 L 13 6 z M 13 8 L 51 8 C 53.773666 8 56 10.226334 56 13 L 56 51 C 56 53.773666 53.773666 56 51 56 L 13 56 C 10.226334 56 8 53.773666 8 51 L 8 13 C 8 10.226334 10.226334 8 13 8 z M 11.984375 10.986328 A 1.0001 1.0001 0 0 0 11 12 L 11 14 A 1.0001 1.0001 0 1 0 13 14 L 13 12 A 1.0001 1.0001 0 0 0 11.984375 10.986328 z M 16.984375 10.986328 A 1.0001 1.0001 0 0 0 16 12 L 16 14 A 1.0001 1.0001 0 1 0 18 14 L 18 12 A 1.0001 1.0001 0 0 0 16.984375 10.986328 z M 21.984375 10.986328 A 1.0001 1.0001 0 0 0 21 12 L 21 14 A 1.0001 1.0001 0 1 0 23 14 L 23 12 A 1.0001 1.0001 0 0 0 21.984375 10.986328 z M 26.984375 10.986328 A 1.0001 1.0001 0 0 0 26 12 L 26 14 A 1.0001 1.0001 0 1 0 28 14 L 28 12 A 1.0001 1.0001 0 0 0 26.984375 10.986328 z M 31.984375 10.986328 A 1.0001 1.0001 0 0 0 31 12 L 31 14 A 1.0001 1.0001 0 1 0 33 14 L 33 12 A 1.0001 1.0001 0 0 0 31.984375 10.986328 z M 36.984375 10.986328 A 1.0001 1.0001 0 0 0 36 12 L 36 14 A 1.0001 1.0001 0 1 0 38 14 L 38 12 A 1.0001 1.0001 0 0 0 36.984375 10.986328 z M 41.984375 10.986328 A 1.0001 1.0001 0 0 0 41 12 L 41 14 A 1.0001 1.0001 0 1 0 43 14 L 43 12 A 1.0001 1.0001 0 0 0 41.984375 10.986328 z M 46.984375 10.986328 A 1.0001 1.0001 0 0 0 46 12 L 46 14 A 1.0001 1.0001 0 1 0 48 14 L 48 12 A 1.0001 1.0001 0 0 0 46.984375 10.986328 z M 51.984375 10.986328 A 1.0001 1.0001 0 0 0 51 12 L 51 14 A 1.0001 1.0001 0 1 0 53 14 L 53 12 A 1.0001 1.0001 0 0 0 51.984375 10.986328 z M 32 19 A 1.0001 1.0001 0 0 0 31 20 L 31 33 L 23 33 A 1.0001 1.0001 0 0 0 22 34 L 22 40 L 14 40 A 1.0001 1.0001 0 0 0 13 41 L 13 47 A 1.0001 1.0001 0 0 0 14 48 L 23 48 L 32 48 L 41 48 L 50 48 A 1.0001 1.0001 0 0 0 51 47 L 51 28 A 1.0001 1.0001 0 0 0 50 27 L 42 27 L 42 20 A 1.0001 1.0001 0 0 0 41 19 L 32 19 z M 33 21 L 40 21 L 40 28 L 40 46 L 33 46 L 33 34 L 33 21 z M 42 29 L 49 29 L 49 46 L 42 46 L 42 29 z M 24 35 L 31 35 L 31 46 L 24 46 L 24 41 L 24 35 z M 15 42 L 22 42 L 22 46 L 15 46 L 15 42 z M 14 50 A 1.0001 1.0001 0 1 0 14 52 L 50 52 A 1.0001 1.0001 0 1 0 50 50 L 14 50 z"/></svg>